<mxfile host="Electron" modified="2024-09-28T14:12:56.070Z" agent="Mozilla/5.0 (Windows NT 10.0; Win64; x64) AppleWebKit/537.36 (KHTML, like Gecko) draw.io/21.6.5 Chrome/114.0.5735.243 Electron/25.3.1 Safari/537.36" etag="y9UGY4LRxaTMm2JWCOQv" version="21.6.5" type="device">
  <diagram name="第 1 页" id="qzA3Ri5ebCYzLbemoIqA">
    <mxGraphModel dx="942" dy="595" grid="1" gridSize="10" guides="1" tooltips="1" connect="1" arrows="1" fold="1" page="1" pageScale="1" pageWidth="827" pageHeight="1169" math="0" shadow="0">
      <root>
        <mxCell id="0" />
        <mxCell id="1" parent="0" />
        <mxCell id="ZBmhu861im44mBhWCY0r-1" value="" style="rounded=1;whiteSpace=wrap;html=1;fillColor=#ffcccc;strokeColor=#36393d;" vertex="1" parent="1">
          <mxGeometry x="490" y="150" width="320" height="270" as="geometry" />
        </mxCell>
        <mxCell id="ZBmhu861im44mBhWCY0r-2" value="" style="rounded=1;whiteSpace=wrap;html=1;fillColor=#eeeeee;strokeColor=#36393d;" vertex="1" parent="1">
          <mxGeometry x="140" y="150" width="320" height="110" as="geometry" />
        </mxCell>
        <mxCell id="ZBmhu861im44mBhWCY0r-3" value="" style="shape=document;whiteSpace=wrap;html=1;boundedLbl=1;" vertex="1" parent="1">
          <mxGeometry x="160" y="180" width="60" height="40" as="geometry" />
        </mxCell>
        <mxCell id="ZBmhu861im44mBhWCY0r-4" style="edgeStyle=orthogonalEdgeStyle;rounded=0;orthogonalLoop=1;jettySize=auto;html=1;exitX=1;exitY=0.5;exitDx=0;exitDy=0;entryX=0;entryY=0.5;entryDx=0;entryDy=0;" edge="1" parent="1" source="ZBmhu861im44mBhWCY0r-5" target="ZBmhu861im44mBhWCY0r-20">
          <mxGeometry relative="1" as="geometry" />
        </mxCell>
        <mxCell id="ZBmhu861im44mBhWCY0r-5" value="" style="shape=document;whiteSpace=wrap;html=1;boundedLbl=1;" vertex="1" parent="1">
          <mxGeometry x="154" y="184" width="60" height="40" as="geometry" />
        </mxCell>
        <mxCell id="ZBmhu861im44mBhWCY0r-6" value="" style="rounded=1;whiteSpace=wrap;html=1;fillColor=#ffff88;strokeColor=#36393d;" vertex="1" parent="1">
          <mxGeometry x="270" y="300" width="200" height="130" as="geometry" />
        </mxCell>
        <mxCell id="ZBmhu861im44mBhWCY0r-7" style="edgeStyle=orthogonalEdgeStyle;rounded=0;orthogonalLoop=1;jettySize=auto;html=1;" edge="1" parent="1" source="ZBmhu861im44mBhWCY0r-8" target="ZBmhu861im44mBhWCY0r-13">
          <mxGeometry relative="1" as="geometry" />
        </mxCell>
        <mxCell id="ZBmhu861im44mBhWCY0r-8" value="" style="rounded=1;whiteSpace=wrap;html=1;fillColor=#cce5ff;strokeColor=#36393d;" vertex="1" parent="1">
          <mxGeometry x="100" y="295" width="140" height="140" as="geometry" />
        </mxCell>
        <mxCell id="ZBmhu861im44mBhWCY0r-9" value="全连接层" style="rounded=0;whiteSpace=wrap;html=1;" vertex="1" parent="1">
          <mxGeometry x="130" y="315" width="80" height="30" as="geometry" />
        </mxCell>
        <mxCell id="ZBmhu861im44mBhWCY0r-10" value="ReLU层" style="rounded=0;whiteSpace=wrap;html=1;" vertex="1" parent="1">
          <mxGeometry x="130" y="350" width="80" height="30" as="geometry" />
        </mxCell>
        <mxCell id="ZBmhu861im44mBhWCY0r-11" value="损失层" style="rounded=0;whiteSpace=wrap;html=1;" vertex="1" parent="1">
          <mxGeometry x="130" y="385" width="80" height="30" as="geometry" />
        </mxCell>
        <mxCell id="ZBmhu861im44mBhWCY0r-12" style="edgeStyle=orthogonalEdgeStyle;rounded=0;orthogonalLoop=1;jettySize=auto;html=1;" edge="1" parent="1" source="ZBmhu861im44mBhWCY0r-13" target="ZBmhu861im44mBhWCY0r-15">
          <mxGeometry relative="1" as="geometry" />
        </mxCell>
        <mxCell id="ZBmhu861im44mBhWCY0r-13" value="神经网络初始化" style="rounded=0;whiteSpace=wrap;html=1;" vertex="1" parent="1">
          <mxGeometry x="290" y="330" width="60" height="70" as="geometry" />
        </mxCell>
        <mxCell id="ZBmhu861im44mBhWCY0r-35" style="edgeStyle=orthogonalEdgeStyle;rounded=0;orthogonalLoop=1;jettySize=auto;html=1;" edge="1" parent="1" source="ZBmhu861im44mBhWCY0r-15" target="ZBmhu861im44mBhWCY0r-30">
          <mxGeometry relative="1" as="geometry" />
        </mxCell>
        <mxCell id="ZBmhu861im44mBhWCY0r-15" value="建立网络结构" style="rounded=0;whiteSpace=wrap;html=1;" vertex="1" parent="1">
          <mxGeometry x="390" y="330" width="56" height="70" as="geometry" />
        </mxCell>
        <mxCell id="ZBmhu861im44mBhWCY0r-16" style="edgeStyle=orthogonalEdgeStyle;rounded=0;orthogonalLoop=1;jettySize=auto;html=1;exitX=1;exitY=0.5;exitDx=0;exitDy=0;" edge="1" parent="1" source="ZBmhu861im44mBhWCY0r-17" target="ZBmhu861im44mBhWCY0r-22">
          <mxGeometry relative="1" as="geometry" />
        </mxCell>
        <mxCell id="ZBmhu861im44mBhWCY0r-17" value="样本队列" style="shape=parallelogram;perimeter=parallelogramPerimeter;whiteSpace=wrap;html=1;fixedSize=1;" vertex="1" parent="1">
          <mxGeometry x="355" y="189" width="90" height="30" as="geometry" />
        </mxCell>
        <mxCell id="ZBmhu861im44mBhWCY0r-18" value="输入数据" style="shape=document;whiteSpace=wrap;html=1;boundedLbl=1;" vertex="1" parent="1">
          <mxGeometry x="150" y="190" width="60" height="40" as="geometry" />
        </mxCell>
        <mxCell id="ZBmhu861im44mBhWCY0r-19" style="edgeStyle=orthogonalEdgeStyle;rounded=0;orthogonalLoop=1;jettySize=auto;html=1;" edge="1" parent="1" source="ZBmhu861im44mBhWCY0r-20" target="ZBmhu861im44mBhWCY0r-17">
          <mxGeometry relative="1" as="geometry" />
        </mxCell>
        <mxCell id="ZBmhu861im44mBhWCY0r-20" value="数据读取和&lt;br&gt;预处理" style="rounded=0;whiteSpace=wrap;html=1;" vertex="1" parent="1">
          <mxGeometry x="240" y="189" width="90" height="30" as="geometry" />
        </mxCell>
        <mxCell id="ZBmhu861im44mBhWCY0r-21" style="edgeStyle=orthogonalEdgeStyle;rounded=0;orthogonalLoop=1;jettySize=auto;html=1;exitX=1;exitY=0.5;exitDx=0;exitDy=0;entryX=0;entryY=0.5;entryDx=0;entryDy=0;" edge="1" parent="1" source="ZBmhu861im44mBhWCY0r-22" target="ZBmhu861im44mBhWCY0r-24">
          <mxGeometry relative="1" as="geometry" />
        </mxCell>
        <mxCell id="ZBmhu861im44mBhWCY0r-22" value="前向传播" style="rounded=0;whiteSpace=wrap;html=1;" vertex="1" parent="1">
          <mxGeometry x="520" y="189" width="90" height="30" as="geometry" />
        </mxCell>
        <mxCell id="ZBmhu861im44mBhWCY0r-24" value="计算精度" style="rounded=0;whiteSpace=wrap;html=1;" vertex="1" parent="1">
          <mxGeometry x="670" y="189" width="90" height="30" as="geometry" />
        </mxCell>
        <mxCell id="ZBmhu861im44mBhWCY0r-37" style="rounded=0;orthogonalLoop=1;jettySize=auto;html=1;" edge="1" parent="1" source="ZBmhu861im44mBhWCY0r-29" target="ZBmhu861im44mBhWCY0r-22">
          <mxGeometry relative="1" as="geometry" />
        </mxCell>
        <mxCell id="ZBmhu861im44mBhWCY0r-29" value="模型参数" style="shape=parallelogram;perimeter=parallelogramPerimeter;whiteSpace=wrap;html=1;fixedSize=1;" vertex="1" parent="1">
          <mxGeometry x="660" y="350" width="90" height="30" as="geometry" />
        </mxCell>
        <mxCell id="ZBmhu861im44mBhWCY0r-36" style="edgeStyle=orthogonalEdgeStyle;rounded=0;orthogonalLoop=1;jettySize=auto;html=1;" edge="1" parent="1" source="ZBmhu861im44mBhWCY0r-30" target="ZBmhu861im44mBhWCY0r-29">
          <mxGeometry relative="1" as="geometry" />
        </mxCell>
        <mxCell id="ZBmhu861im44mBhWCY0r-30" value="加载神经&lt;br&gt;网络参数" style="rounded=0;whiteSpace=wrap;html=1;" vertex="1" parent="1">
          <mxGeometry x="520" y="350" width="90" height="30" as="geometry" />
        </mxCell>
        <mxCell id="ZBmhu861im44mBhWCY0r-31" value="&lt;font color=&quot;#808080&quot; style=&quot;font-size: 17px;&quot; face=&quot;Family Song 常规体&quot;&gt;数据加载模块&lt;/font&gt;" style="text;html=1;align=center;verticalAlign=middle;resizable=0;points=[];autosize=1;strokeColor=none;fillColor=none;" vertex="1" parent="1">
          <mxGeometry x="240" y="120" width="130" height="30" as="geometry" />
        </mxCell>
        <mxCell id="ZBmhu861im44mBhWCY0r-32" value="&lt;font color=&quot;#ff0080&quot; style=&quot;font-size: 17px;&quot; face=&quot;Family Song 常规体&quot;&gt;网络推断模块&lt;/font&gt;" style="text;html=1;align=center;verticalAlign=middle;resizable=0;points=[];autosize=1;strokeColor=none;fillColor=none;" vertex="1" parent="1">
          <mxGeometry x="570" y="120" width="130" height="30" as="geometry" />
        </mxCell>
        <mxCell id="ZBmhu861im44mBhWCY0r-33" value="&lt;font color=&quot;#007fff&quot; style=&quot;font-size: 17px;&quot; face=&quot;Family Song 常规体&quot;&gt;基本单元模块&lt;/font&gt;" style="text;html=1;align=center;verticalAlign=middle;resizable=0;points=[];autosize=1;strokeColor=none;fillColor=none;" vertex="1" parent="1">
          <mxGeometry x="105" y="435" width="130" height="30" as="geometry" />
        </mxCell>
        <mxCell id="ZBmhu861im44mBhWCY0r-34" value="&lt;font color=&quot;#ff8000&quot; style=&quot;font-size: 17px;&quot; face=&quot;Family Song 常规体&quot;&gt;网络结构模块&lt;/font&gt;" style="text;html=1;align=center;verticalAlign=middle;resizable=0;points=[];autosize=1;strokeColor=none;fillColor=none;" vertex="1" parent="1">
          <mxGeometry x="300" y="435" width="130" height="30" as="geometry" />
        </mxCell>
      </root>
    </mxGraphModel>
  </diagram>
</mxfile>
